<?xml version="1.0" encoding="UTF-8"?>
<svg width="26px" height="26px" viewBox="0 0 26 26" version="1.1" xmlns="http://www.w3.org/2000/svg" xmlns:xlink="http://www.w3.org/1999/xlink">
    <g id="总览&amp;导航" stroke="none" stroke-width="1" fill="none" fill-rule="evenodd">
        <g id="图标" transform="translate(-87.000000, -49.000000)" fill-rule="nonzero">
            <g id="编组-74备份" transform="translate(51.000000, 35.000000)">
                <g id="编组-34备份-2" transform="translate(20.000000, 2.000000)">
                    <g id="编组-63" transform="translate(4.000000, 0.000000)">
                        <g id="cluster" transform="translate(12.000000, 12.000000)">
                            <rect id="矩形" fill="#000000" opacity="0" x="0" y="0" width="26" height="26"></rect>
                            <path d="M24.265625,17.46875 L22.6835938,17.46875 L22.6835938,13.3671875 L14.2460938,13.3671875 L14.2460938,10.671875 L21.21875,10.671875 C21.4765625,10.671875 21.6875,10.4609375 21.6875,10.203125 L21.6875,2.46875 C21.6875,2.2109375 21.4765625,2 21.21875,2 L5.28125,2 C5.0234375,2 4.8125,2.2109375 4.8125,2.46875 L4.8125,10.203125 C4.8125,10.4609375 5.0234375,10.671875 5.28125,10.671875 L12.2539062,10.671875 L12.2539062,13.3671875 L3.81640625,13.3671875 L3.81640625,17.46875 L2.234375,17.46875 C2.10546875,17.46875 2,17.5742188 2,17.703125 L2,22.859375 C2,22.9882812 2.10546875,23.09375 2.234375,23.09375 L7.390625,23.09375 C7.51953125,23.09375 7.625,22.9882812 7.625,22.859375 L7.625,17.703125 C7.625,17.5742188 7.51953125,17.46875 7.390625,17.46875 L5.80859375,17.46875 L5.80859375,15.359375 L12.2539062,15.359375 L12.2539062,17.46875 L10.671875,17.46875 C10.5429688,17.46875 10.4375,17.5742188 10.4375,17.703125 L10.4375,22.859375 C10.4375,22.9882812 10.5429688,23.09375 10.671875,23.09375 L15.828125,23.09375 C15.9570312,23.09375 16.0625,22.9882812 16.0625,22.859375 L16.0625,17.703125 C16.0625,17.5742188 15.9570312,17.46875 15.828125,17.46875 L14.2460938,17.46875 L14.2460938,15.359375 L20.6914062,15.359375 L20.6914062,17.46875 L19.109375,17.46875 C18.9804688,17.46875 18.875,17.5742188 18.875,17.703125 L18.875,22.859375 C18.875,22.9882812 18.9804688,23.09375 19.109375,23.09375 L24.265625,23.09375 C24.3945312,23.09375 24.5,22.9882812 24.5,22.859375 L24.5,17.703125 C24.5,17.5742188 24.3945312,17.46875 24.265625,17.46875 Z M5.75,21.1396484 C5.75,21.1835938 5.71484375,21.21875 5.67089844,21.21875 L3.95117188,21.21875 C3.90722656,21.21875 3.87207031,21.1835938 3.87207031,21.1396484 L3.87207031,19.4199219 C3.87207031,19.3759766 3.90722656,19.3408203 3.95117188,19.3408203 L5.67089844,19.3408203 C5.71484375,19.3408203 5.75,19.3759766 5.75,19.4199219 L5.75,21.1396484 Z M14.1875,21.1396484 C14.1875,21.1835938 14.1523438,21.21875 14.1083984,21.21875 L12.3886719,21.21875 C12.3447266,21.21875 12.3095703,21.1835938 12.3095703,21.1396484 L12.3095703,19.4199219 C12.3095703,19.3759766 12.3447266,19.3408203 12.3886719,19.3408203 L14.1083984,19.3408203 C14.1523438,19.3408203 14.1875,19.3759766 14.1875,19.4199219 L14.1875,21.1396484 Z M6.6875,8.796875 L6.6875,3.875 L19.8125,3.875 L19.8125,8.796875 L6.6875,8.796875 Z M22.625,21.1396484 C22.625,21.1835938 22.5898437,21.21875 22.5458984,21.21875 L20.8261719,21.21875 C20.7822266,21.21875 20.7470703,21.1835938 20.7470703,21.1396484 L20.7470703,19.4199219 C20.7470703,19.3759766 20.7822266,19.3408203 20.8261719,19.3408203 L22.5458984,19.3408203 C22.5898437,19.3408203 22.625,19.3759766 22.625,19.4199219 L22.625,21.1396484 Z M8.796875,6.3359375 C8.796875,6.98314619 9.32154131,7.5078125 9.96875,7.5078125 C10.6159587,7.5078125 11.140625,6.98314619 11.140625,6.3359375 C11.140625,5.68872881 10.6159587,5.1640625 9.96875,5.1640625 C9.32154131,5.1640625 8.796875,5.68872881 8.796875,6.3359375 Z" id="形状" fill="#FFFFFF"></path>
                        </g>
                    </g>
                </g>
            </g>
        </g>
    </g>
</svg>
