<?xml version="1.0" encoding="UTF-8"?>
<svg width="26px" height="26px" viewBox="0 0 26 26" version="1.1" xmlns="http://www.w3.org/2000/svg" xmlns:xlink="http://www.w3.org/1999/xlink">
    <title>JIMKV@4x</title>
    <g id="总览&amp;导航" stroke="none" stroke-width="1" fill="none" fill-rule="evenodd">
        <g id="图标" transform="translate(-695.000000, -246.000000)" fill-rule="nonzero">
            <g id="编组-74备份" transform="translate(51.000000, 35.000000)">
                <g id="编组-34备份-6" transform="translate(632.000000, 199.000000)">
                    <g id="jimkv" transform="translate(12.000000, 12.000000)">
                        <rect id="矩形" fill="#000000" opacity="0" x="0" y="0" width="26" height="26"></rect>
                        <path d="M24.375,11.0175 C24.375,8.89416666 20.5833333,7.94625 16.7916667,7.94625 C13,7.94625 9.20833334,8.89416666 9.20833334,11.0175 L9.20833334,22.2083333 L9.51166666,22.2083333 C10.4433333,23.7033333 13.6391667,24.375 16.81875,24.375 C20.6104167,24.375 24.4020833,23.41625 24.4020833,21.2766667 L24.4020833,11.0716667 C24.4020833,11.0716667 24.375,11.03375 24.375,11.0175 Z M22.4791667,16.03875 C22.2245833,16.4179167 20.3125,17.2791667 16.7916667,17.2791667 C13.2708333,17.2791667 11.375,16.4179167 11.1041667,16.03875 L11.1041667,13.1570833 C12.9238972,13.8245159 14.854194,14.1388785 16.7916667,14.0833333 C18.7291393,14.1388785 20.6594361,13.8245159 22.4791667,13.1570833 L22.4791667,16.03875 Z M16.7916667,9.84208334 C20.1175,9.84208334 22.0133333,10.6058333 22.425,11.0175 C22.0133333,11.42375 20.1175,12.1875 16.7916667,12.1875 C13.4658333,12.1875 11.57,11.42375 11.1583333,11.0175 C11.57,10.6058333 13.4658333,9.84208334 16.7916667,9.84208334 Z M16.7916667,22.4791667 C13.27625,22.4791667 11.375,21.6016667 11.1041667,21.2116667 L11.1041667,18.2433333 C12.9235046,18.9127387 14.853837,19.2289455 16.7916667,19.175 C18.7294963,19.2289455 20.6598288,18.9127387 22.4791667,18.2433333 L22.4791667,21.2116667 C22.2083333,21.6016667 20.3125,22.4791667 16.7916667,22.4791667 L16.7916667,22.4791667 Z" id="形状" fill="#FFFFFF"></path>
                        <path d="M5.73083334,8.57458334 C6.25435325,8.57458333 6.67874998,8.15018658 6.67874998,7.62666667 C6.67874998,7.10314676 6.25435325,6.67875002 5.73083334,6.67875 L3.52083334,6.67875 L3.52083334,3.52083334 L14.8958333,3.52083334 L14.8958333,5.30291666 C14.8958334,5.82643656 15.3202301,6.25083328 15.84375,6.25083328 C16.3672699,6.25083328 16.7916666,5.82643656 16.7916667,5.30291666 L16.7916667,2.59458334 C16.7974999,2.33944746 16.7002115,2.09273726 16.5218065,1.9102544 C16.3434014,1.72777155 16.0989525,1.62499997 15.84375,1.62499997 L2.57291666,1.62499997 C2.04939674,1.62499997 1.625,2.04939674 1.625,2.57291666 L1.625,18.3733333 C1.625,18.8968533 2.04939674,19.32125 2.57291666,19.32125 L5.73083334,19.32125 C6.25435326,19.32125 6.67875001,18.8968533 6.67875001,18.3733333 C6.67875001,17.8498134 6.25435326,17.4254167 5.73083334,17.4254167 L3.52083334,17.4254167 L3.52083334,14.2620833 L5.22708334,14.2620833 C5.75060326,14.2620833 6.17500001,13.8376866 6.17500001,13.3141667 C6.17500001,12.7906467 5.75060326,12.36625 5.22708334,12.36625 L3.52083334,12.36625 L3.52083334,8.57458334 L5.73083334,8.57458334 Z" id="路径" fill="#FFFFFF"></path>
                    </g>
                </g>
            </g>
        </g>
    </g>
</svg>