<?xml version="1.0" encoding="UTF-8"?>
<svg width="26px" height="26px" viewBox="0 0 26 26" version="1.1" xmlns="http://www.w3.org/2000/svg" xmlns:xlink="http://www.w3.org/1999/xlink">
    <title>MDC单ip查询@4x</title>
    <g id="总览&amp;导航" stroke="none" stroke-width="1" fill="none" fill-rule="evenodd">
        <g id="图标" transform="translate(-456.000000, -49.000000)" fill-rule="nonzero">
            <g id="编组-74备份" transform="translate(51.000000, 35.000000)">
                <g id="编组-34备份-5" transform="translate(374.000000, 2.000000)">
                    <g id="搜索类目-fill" transform="translate(31.000000, 12.000000)">
                        <rect id="矩形" fill="#7D848E" opacity="0" x="0" y="0" width="26" height="26"></rect>
                        <path d="M6.72890798,6.78352495 L0.961272568,6.78352495 C0.429915877,6.78352495 0,6.35727973 0,5.83524908 C0,5.31321843 0.429915877,4.88697322 0.961272568,4.88697322 L6.72407747,4.88697322 C7.25543416,4.88697322 7.68535003,5.31321843 7.68535003,5.83524908 C7.68535003,6.35727973 7.25543416,6.78352495 6.72890798,6.78352495 L6.72890798,6.78352495 Z M6.49221273,16.1704981 L0.961272568,16.1704981 C0.429915877,16.1704981 0,15.7442529 0,15.2222222 C0,14.7001916 0.429915877,14.2739464 0.961272568,14.2739464 L6.49221273,14.2739464 C7.02356943,14.2739464 7.4534853,14.7001916 7.4534853,15.2222222 C7.4534853,15.7442529 7.02356943,16.1704981 6.49221273,16.1704981 L6.49221273,16.1704981 Z M5.35704161,11.467433 L0.961272568,11.467433 C0.429915877,11.467433 4.4408921e-16,11.0411878 4.4408921e-16,10.5143679 C4.4408921e-16,9.98754794 0.429915877,9.56130272 0.961272568,9.56130272 L5.35704161,9.56130272 C5.8883983,9.56130272 6.31831418,9.98754794 6.31831418,10.5143679 C6.31831418,11.0411878 5.8883983,11.467433 5.35704161,11.467433 L5.35704161,11.467433 Z M11.5449319,21.045977 L0.966103109,21.045977 C0.434746417,21.045977 0.0048305404,20.6197318 0.0048305404,20.0929119 C0.0048305404,19.566092 0.434746389,19.144636 0.966103081,19.144636 L11.5449318,19.144636 C12.0762885,19.144636 12.5062044,19.5708813 12.5062044,20.0977012 C12.5062044,20.6197318 12.0762886,21.045977 11.5449319,21.045977 L11.5449319,21.045977 Z M10.4435743,10.605364 C10.4435743,7.38218396 13.0955273,4.75766287 16.3561252,4.75766287 C19.6167231,4.75766287 22.2686761,7.37739466 22.2686761,10.605364 C22.2686761,13.8333334 19.6167231,16.4530652 16.3561252,16.4530652 C13.0955273,16.4530652 10.4435743,13.8285441 10.4435743,10.605364 L10.4435743,10.605364 L10.4435743,10.605364 Z M25.8046134,21.467433 L21.6648617,16.1082376 C23.1333384,14.7193487 24.0559668,12.770115 24.0559668,10.6101533 C24.0559668,6.41475096 20.6021483,3 16.3561252,3 C12.1101022,3 8.65628366,6.41475096 8.65628366,10.6101533 C8.65628366,14.8055556 12.1101022,18.2203065 16.3561252,18.2203065 C17.7231611,18.2203065 19.0032477,17.8611111 20.1190967,17.243295 L24.27334,22.6216475 C24.4617301,22.8659004 24.751561,23 25.0365614,23 C25.2394431,23 25.4471552,22.9377395 25.6162233,22.8036398 C26.0461391,22.4779694 26.1234274,21.8793104 25.8046134,21.467433 L25.8046134,21.467433 L25.8046134,21.467433 Z M20.4958769,10.5718391 C20.4958769,12.8275862 18.65062,14.6522989 16.3802778,14.6522989 C14.1099355,14.6522989 12.2646787,12.822797 12.2646787,10.5718391 C12.2646787,8.32088126 14.1099355,6.49137935 16.3802778,6.49137935 C18.65062,6.49137935 20.4958769,8.32088126 20.4958769,10.5718391 Z" id="形状" fill="#FFFFFF"></path>
                    </g>
                </g>
            </g>
        </g>
    </g>
</svg>