<?xml version="1.0" encoding="UTF-8"?>
<svg width="26px" height="26px" viewBox="0 0 26 26" version="1.1" xmlns="http://www.w3.org/2000/svg" xmlns:xlink="http://www.w3.org/1999/xlink">
    <title>JMQ@4x</title>
    <g id="总览&amp;导航" stroke="none" stroke-width="1" fill="none" fill-rule="evenodd">
        <g id="图标" transform="translate(-87.000000, -246.000000)" fill-rule="nonzero">
            <g id="编组-74备份" transform="translate(51.000000, 35.000000)">
                <g id="编组-34备份-8" transform="translate(24.000000, 199.000000)">
                    <g id="cluster" transform="translate(12.000000, 12.000000)">
                        <rect id="矩形" fill="#000000" opacity="0" x="0" y="0" width="26" height="26"></rect>
                        <g id="消息" transform="translate(1.000000, 1.000000)">
                            <rect id="矩形" fill="#000000" opacity="0" x="0" y="0" width="24" height="24"></rect>
                            <path d="M19.6363636,0.533333327 L4.36363636,0.533333327 C1.96363636,0.533333327 0,2.45333332 0,4.74666667 L0,16.8 C0,19.1466667 1.96363636,21.0133333 4.36363636,21.0133333 L8.07272728,21.0133333 L10.2,23.4666667 C10.8137207,24 11.3454545,24.1621094 12,24.1621094 C12.6545455,24.1621094 13.1178589,24 13.8,23.4666667 L15.9272727,21.0133333 L19.6363636,21.0133333 C22.0363636,21.0133333 24,19.0933334 24,16.8 L24,4.74666667 C24,2.45333332 22.0363636,0.533333327 19.6363636,0.533333327 Z M21.8181818,16.8 C21.8181818,17.9733333 20.8363636,18.88 19.6363636,18.88 L15.6,18.88 C15.3818182,18.88 15.1636364,18.9333333 15,19.04 L12.6,21.7066667 C12.4363636,21.8666667 12.2181818,21.92 12,21.92 C11.7818182,21.92 11.5636364,21.8666667 11.4,21.76 L9,19.0933333 C8.83636364,18.9866667 8.61818182,18.9333333 8.4,18.9333333 L4.36363636,18.9333333 C3.16363636,18.9333333 2.18181818,17.9733333 2.18181818,16.8533333 L2.18181818,4.74666667 C2.18181818,3.62666666 3.16363636,2.66666666 4.36363636,2.66666666 L19.6363636,2.66666666 C20.8363636,2.66666666 21.8181818,3.62666666 21.8181818,4.74666667 L21.8181818,16.8 Z" id="形状" fill="#FFFFFF"></path>
                            <path d="M11.1818182,12.318974 C11.6881108,12.6047865 12.3118892,12.6047865 12.8181818,12.318974 C13.3244745,12.0331615 13.6363636,11.5049583 13.6363636,10.9333333 C13.6363636,10.3617084 13.3244745,9.83350513 12.8181818,9.54769264 C12.3118892,9.26188016 11.6881108,9.26188016 11.1818182,9.54769264 C10.6755255,9.83350513 10.3636364,10.3617084 10.3636364,10.9333333 C10.3636364,11.5049583 10.6755255,12.0331615 11.1818182,12.318974 Z" id="路径" fill="#FFFFFF"></path>
                            <path d="M6.54545454,12.5333333 C7.44919322,12.5333333 8.18181818,11.8169889 8.18181818,10.9333333 C8.18181818,10.0496777 7.44919322,9.33333333 6.54545454,9.33333333 C5.64171586,9.33333333 4.9090909,10.0496777 4.9090909,10.9333333 C4.9090909,11.8169889 5.64171586,12.5333333 6.54545454,12.5333333 Z" id="路径" fill="#FFFFFF"></path>
                            <path d="M17.4545455,12.5333333 C18.3582841,12.5333333 19.0909091,11.8169889 19.0909091,10.9333333 C19.0909091,10.0496777 18.3582841,9.33333333 17.4545455,9.33333333 C16.5508068,9.33333333 15.8181818,10.0496777 15.8181818,10.9333333 C15.8181818,11.8169889 16.5508068,12.5333333 17.4545455,12.5333333 Z" id="路径" fill="#FFFFFF"></path>
                        </g>
                    </g>
                </g>
            </g>
        </g>
    </g>
</svg>