<?xml version="1.0" encoding="UTF-8"?>
<svg width="26px" height="26px" viewBox="0 0 26 26" version="1.1" xmlns="http://www.w3.org/2000/svg" xmlns:xlink="http://www.w3.org/1999/xlink">
    <title>混沌工程@4x</title>
    <defs>
        <polygon id="path-1" points="0 0 24 0 24 26 0 26"></polygon>
    </defs>
    <g id="总览&amp;导航" stroke="none" stroke-width="1" fill="none" fill-rule="evenodd">
        <g id="图标" transform="translate(-582.000000, -49.000000)">
            <g id="编组-74备份" transform="translate(51.000000, 35.000000)">
                <g id="编组-34备份-3" transform="translate(516.000000, 0.000000)">
                    <g id="编组-5" transform="translate(15.000000, 14.000000)">
                        <g id="编组" transform="translate(1.000000, 0.000000)">
                            <mask id="mask-2" fill="white">
                                <use xlink:href="#path-1"></use>
                            </mask>
                            <g id="Clip-2"></g>
                            <path d="M21.7724489,4.43295463 C21.9562319,4.59202709 21.9885448,4.88671739 21.8452892,5.09076305 L20.6761166,6.75305756 C20.588878,6.88102647 20.4416819,6.94881952 20.2924851,6.92987174 C20.1839068,6.93669548 20.0772381,6.89749865 19.9966076,6.82113626 L19.1883322,6.06760506 C19.0094295,5.89513903 18.9869378,5.60774854 19.1365893,5.40716236 C19.205398,5.31270912 19.3087627,5.25281891 19.4217363,5.24177398 C19.5345584,5.23085599 19.6467136,5.26992587 19.7308906,5.34952557 L20.2511696,5.8348997 L21.1802997,4.51315736 C21.2456832,4.41610158 21.3468957,4.35199018 21.4595056,4.33675578 C21.5719942,4.3213627 21.6855438,4.35621137 21.7724489,4.43257377 L21.7724489,4.43295463 Z M11.5881494,7.36662276 L22.7624764,7.36662276 L22.7624764,3.89997302 L11.5881494,3.89997302 L11.5881494,7.36662276 Z M19.7400146,11.7759006 L19.7789658,11.8118601 L20.2792387,12.3356694 L20.7796328,11.8118601 C20.9412576,11.6426314 21.2032764,11.6426314 21.3647799,11.8118601 L21.4140373,11.8634349 C21.575662,12.0325367 21.575662,12.3069144 21.4140373,12.4761432 L20.9137644,13.0000793 L21.4140373,13.5238568 C21.5615668,13.678359 21.5762683,13.9234423 21.4485023,14.0959083 L21.4140373,14.1366921 L21.3647799,14.1882668 C21.2173716,14.3426103 20.9832703,14.3580034 20.818584,14.2242263 L20.7796328,14.1882668 L20.2792387,13.6643306 L19.7789658,14.1882668 C19.6173411,14.3573686 19.3552919,14.3573686 19.1936672,14.1882668 L19.1444098,14.1366921 C18.9829063,13.9674633 18.9829063,13.6930856 19.1444098,13.5238568 L19.6448039,13.0000793 L19.1444098,12.4761432 C18.9970015,12.321768 18.9823304,12.0766847 19.1100661,11.9040917 L19.1444098,11.8634349 L19.1936672,11.8118601 C19.3411967,11.6573897 19.575298,11.6419966 19.7400146,11.7759006 L19.7400146,11.7759006 Z M11.5881494,14.7334042 L22.7624764,14.7334042 L22.7624764,11.2667227 L11.5881494,11.2667227 L11.5881494,14.7334042 Z M21.7724489,19.1663588 C21.9562319,19.3253996 21.9885448,19.6201216 21.8452892,19.8241673 L20.6761166,21.4864618 C20.588878,21.6144307 20.4416819,21.6822237 20.2924851,21.663276 C20.1839068,21.670068 20.0772381,21.6309029 19.9966076,21.5544135 L19.1883322,20.8008823 C19.0094295,20.6284163 18.9869378,20.3411528 19.1365893,20.1404396 C19.205398,20.0460816 19.3087627,19.9860962 19.4217363,19.9751782 C19.5345584,19.9642602 19.6467136,20.0033301 19.7308906,20.0829298 L20.2511696,20.568177 L21.1802997,19.2465616 C21.2456832,19.1493788 21.3468957,19.0853944 21.4595056,19.070033 C21.5719942,19.0547669 21.6855438,19.0894886 21.7724489,19.165978 L21.7724489,19.1663588 Z M11.5881494,22.100027 L22.7624764,22.100027 L22.7624764,18.6333772 L11.5881494,18.6333772 L11.5881494,22.100027 Z M0.827796406,23.4000603 C0.37062751,23.4000603 0,23.0120276 0,22.5333503 L0,3.46668148 C0,2.98800414 0.37062751,2.60006665 0.827796406,2.60006665 L2.89706008,2.60006665 L2.89706008,0 L4.13867891,0 L4.13867891,2.60006665 L6.2079729,2.60006665 C6.66514179,2.60006665 7.03561774,2.98800414 7.03561774,3.46668148 L7.03561774,5.20000635 L10.3465306,5.20000635 L10.3465306,3.46668148 C10.3465306,3.23680083 10.4337994,3.01637819 10.5890283,2.85384626 C10.7442572,2.69131432 10.9547756,2.60006665 11.174327,2.60006665 L23.1762988,2.60006665 C23.6334677,2.60006665 24.0040952,2.98800414 24.0040952,3.46668148 L24.0040952,7.800073 C24.0040952,8.27862339 23.6334677,8.66665609 23.1762988,8.66665609 L11.174327,8.66665609 C10.9547756,8.66665609 10.7442572,8.57540842 10.5890283,8.41287648 C10.4337994,8.25034454 10.3465306,8.02992191 10.3465306,7.800073 L10.3465306,6.50003967 L7.03561774,6.50003967 L7.03561774,12.5666291 L10.3465306,12.5666291 L10.3465306,10.8333042 C10.3465306,10.6034553 10.4337994,10.3830327 10.5890283,10.220469 C10.7442572,10.0579371 10.9547756,9.96668941 11.174327,9.96668941 L23.1762988,9.96668941 C23.3958199,9.96668941 23.6063382,10.0579371 23.7615974,10.220469 C23.9168263,10.3830327 24.0040952,10.6034553 24.0040952,10.8333042 L24.0040952,15.1666958 C24.0040952,15.3965447 23.9168263,15.616999 23.7615974,15.779531 C23.6063382,15.9420629 23.3958199,16.0333106 23.1762988,16.0333106 L11.174327,16.0333106 C10.9547756,16.0333106 10.7442572,15.9420629 10.5890283,15.779531 C10.4337994,15.616999 10.3465306,15.3965447 10.3465306,15.1666958 L10.3465306,13.8666624 L7.03561774,13.8666624 L7.03561774,19.9334106 L10.3465306,19.9334106 L10.3465306,18.200054 C10.3465306,17.970205 10.4337994,17.7497824 10.5890283,17.5872505 C10.7442572,17.4247185 10.9547756,17.3333439 11.174327,17.3333439 L23.1762988,17.3333439 C23.6334677,17.3333439 24.0040952,17.7213766 24.0040952,18.200054 L24.0040952,22.5333503 C24.0040952,23.0120276 23.6334677,23.4000603 23.1762988,23.4000603 L11.174327,23.4000603 C10.9547756,23.4000603 10.7442572,23.3086857 10.5890283,23.1461537 C10.4337994,22.9836218 10.3465306,22.7631992 10.3465306,22.5333503 L10.3465306,21.2333169 L7.03561774,21.2333169 L7.03561774,22.5333503 C7.03561774,23.0120276 6.66514179,23.4000603 6.2079729,23.4000603 L4.13867891,23.4000603 L4.13867891,26 L2.89706008,26 L2.89706008,23.4000603 L0.827796406,23.4000603 Z" id="Fill-1" fill="#FFFFFF" mask="url(#mask-2)"></path>
                        </g>
                    </g>
                </g>
            </g>
        </g>
    </g>
</svg>