<?xml version="1.0" encoding="UTF-8"?>
<svg width="26px" height="26px" viewBox="0 0 26 26" version="1.1" xmlns="http://www.w3.org/2000/svg" xmlns:xlink="http://www.w3.org/1999/xlink">
    <title>jsf@4x</title>
    <g id="总览&amp;导航" stroke="none" stroke-width="1" fill="none" fill-rule="evenodd">
        <g id="图标" transform="translate(-695.000000, -146.000000)" fill="#FFFFFF" fill-rule="nonzero">
            <g id="编组-74备份" transform="translate(51.000000, 35.000000)">
                <g id="编组-34备份-6" transform="translate(632.000000, 99.000000)">
                    <g id="编组-15" transform="translate(12.000000, 12.000000)">
                        <g id="编组-18" transform="translate(0.500000, 0.500000)">
                            <path d="M3.57139081,19.6338749 C4.55760315,19.6338749 5.35708622,20.4329905 5.35708622,21.4187496 C5.35708622,22.4045087 4.55760315,23.2036244 3.57139081,23.2036244 C2.58517847,23.2036244 1.78569541,22.4045087 1.78569541,21.4187496 C1.78569541,20.4329905 2.58517847,19.6338749 3.57139081,19.6338749 M3.57139081,17.8490001 C1.59896613,17.8490001 5.5067062e-14,19.4472314 5.5067062e-14,21.4187496 C5.5067062e-14,23.3902678 1.59896613,24.9884991 3.57139081,24.9884991 C5.54381549,24.9884991 7.14278163,23.3902678 7.14278163,21.4187496 C7.14278163,19.4472314 5.54381549,17.8490001 3.57139081,17.8490001 Z M12.4998678,1.78487474 C13.4860802,1.78487474 14.2855633,2.58399038 14.2855633,3.56974948 C14.2855633,4.55550858 13.4860802,5.35462422 12.4998678,5.35462422 C11.5136555,5.35462422 10.7141724,4.55550858 10.7141724,3.56974948 C10.7141724,2.58399038 11.5136555,1.78487474 12.4998678,1.78487474 M12.4998678,8.8817842e-15 C10.5274432,8.8817842e-15 8.92847703,1.59823128 8.92847703,3.56974948 C8.92847703,5.54126768 10.5274432,7.13949896 12.4998678,7.13949896 C14.4722925,7.13949896 16.0712587,5.54126768 16.0712587,3.56974948 C16.0712587,1.59823128 14.4722925,8.8817842e-15 12.4998678,8.8817842e-15 Z M21.4283449,1.78487474 C22.4145572,1.78487474 23.2140403,2.58399038 23.2140403,3.56974948 C23.2140403,4.55550858 22.4145572,5.35462422 21.4283449,5.35462422 C20.4421325,5.35462422 19.6426495,4.55550858 19.6426495,3.56974948 C19.6426495,2.58399038 20.4421325,1.78487474 21.4283449,1.78487474 M21.4283449,8.8817842e-15 C19.4559202,8.8817842e-15 17.8569541,1.59823128 17.8569541,3.56974948 C17.8569541,5.54126768 19.4559202,7.13949896 21.4283449,7.13949896 C23.4007696,7.13949896 24.9997357,5.54126768 24.9997357,3.56974948 C24.9997357,1.59823128 23.4007696,8.8817842e-15 21.4283449,8.8817842e-15 Z M14.2855633,19.6338749 L14.2855633,23.2036244 L10.7141724,23.2036244 L10.7141724,19.6338749 L14.2855633,19.6338749 M16.0712587,17.8490001 L8.92847703,17.8490001 L8.92847703,24.9884991 L16.0712587,24.9884991 L16.0712587,17.8490001 Z" id="形状"></path>
                            <path d="M22.3211926,17.9738554 L22.3211926,13.3868133 C22.3212597,12.9133913 22.133154,12.4593365 21.7982639,12.1245529 C21.4633738,11.7897693 21.0091369,11.6016858 20.5354972,11.6016858 L4.46423852,11.6016858 L4.46423852,7.13949896 L7.14278163,7.13949896 L7.14278163,0 L0,0 L0,7.13949896 L2.67854311,7.13949896 L2.67854311,11.6016858 C2.67847604,12.0751078 2.86658166,12.5291626 3.20147178,12.8639462 C3.5363619,13.1987298 3.99059883,13.3868133 4.46423852,13.3868133 L20.5354972,13.3868133 L20.5354972,17.9738554 C18.7941703,18.4232575 17.6588086,20.0967736 17.8854191,21.8800543 C18.1120296,23.6633349 19.6299102,25 21.4283449,25 C23.2267795,25 24.7446601,23.6633349 24.9712706,21.8800543 C25.1978811,20.0967736 24.0625195,18.4232575 22.3211926,17.9738554 L22.3211926,17.9738554 Z M1.78569541,1.78487474 L5.35708622,1.78487474 L5.35708622,5.35462422 L1.78569541,5.35462422 L1.78569541,1.78487474 Z M21.4283449,23.2036244 C20.4421325,23.2036244 19.6426495,22.4045087 19.6426495,21.4187496 C19.6426495,20.4329905 20.4421325,19.6338749 21.4283449,19.6338749 C22.4145572,19.6338749 23.2140403,20.4329905 23.2140403,21.4187496 C23.2140403,22.4045087 22.4145572,23.2036244 21.4283449,23.2036244 Z" id="形状"></path>
                        </g>
                    </g>
                </g>
            </g>
        </g>
    </g>
</svg>